<?xml version="1.0" standalone="no"?>
<!DOCTYPE svg PUBLIC "-//W3C//DTD SVG 20010904//EN"
 "http://www.w3.org/TR/2001/REC-SVG-20010904/DTD/svg10.dtd">
<svg version="1.0" xmlns="http://www.w3.org/2000/svg"
 width="1000.000000pt" height="250.000000pt" viewBox="0 0 1000.000000 250.000000"
 preserveAspectRatio="xMidYMid meet">

<g transform="translate(0.000000,250.000000) scale(0.100000,-0.100000)"
fill="#000000" stroke="none">
<path d="M1316 2331 c-15 -16 -27 -63 -41 -162 l-5 -37 -153 -37 c-440 -109
-986 -292 -975 -327 3 -9 36 -15 94 -19 168 -12 360 -79 511 -179 226 -149
349 -359 399 -685 13 -82 15 -154 9 -411 -7 -314 -4 -347 28 -315 15 15 37
373 31 506 -8 148 29 707 70 1070 19 164 54 345 70 361 16 15 212 50 438 79
394 49 559 44 652 -20 38 -27 53 -32 67 -24 19 10 25 53 11 76 -48 76 -469 73
-922 -8 -96 -17 -188 -34 -204 -37 -27 -4 -29 -3 -23 19 19 69 30 138 24 152
-9 23 -60 22 -81 -2z m-56 -265 c0 -8 -11 -92 -25 -186 -14 -95 -30 -249 -35
-344 -5 -94 -14 -227 -20 -296 -5 -69 -10 -144 -10 -168 0 -51 -16 -48 -26 6
-10 59 -72 200 -118 271 -83 128 -190 224 -336 304 -80 44 -250 102 -348 119
-39 6 -72 15 -72 19 0 15 329 120 575 184 143 37 289 75 325 85 81 23 90 24
90 6z"/>
<path d="M6349 2158 c-12 -22 -11 -22 7 -8 10 8 20 15 22 16 2 1 -1 5 -7 8 -5
4 -15 -4 -22 -16z"/>
<path d="M6970 2170 c0 -6 7 -10 15 -10 8 0 15 2 15 4 0 2 -7 6 -15 10 -8 3
-15 1 -15 -4z"/>
<path d="M7950 2173 c-41 -2 -79 -8 -83 -12 -4 -4 -2 -8 6 -8 7 0 71 -30 142
-68 l128 -67 -74 -49 c-41 -26 -80 -48 -86 -49 -7 0 -13 -5 -13 -11 0 -5 5 -7
10 -4 6 3 40 12 77 19 64 11 67 13 80 50 12 37 89 137 125 164 10 7 18 20 18
28 0 8 -27 -18 -61 -58 -33 -40 -65 -74 -69 -76 -5 -2 -28 31 -52 72 -26 46
-49 75 -58 74 -8 -1 -49 -4 -90 -5z"/>
<path d="M7358 2163 c7 -3 16 -2 19 1 4 3 -2 6 -13 5 -11 0 -14 -3 -6 -6z"/>
<path d="M9027 2141 c-4 -19 -5 -36 -2 -39 10 -11 16 7 13 40 l-3 33 -8 -34z"/>
<path d="M8735 2148 c-2 -7 -16 -58 -31 -113 -14 -55 -30 -109 -36 -120 -9
-19 -8 -19 6 -2 15 20 132 61 146 52 12 -7 -22 -65 -38 -65 -7 0 -22 5 -32 10
-15 8 -18 7 -15 -2 2 -7 -32 -42 -76 -78 -51 -41 -75 -66 -66 -70 8 -3 28 -17
46 -33 29 -24 31 -30 20 -45 -13 -15 -12 -16 3 -4 15 12 18 11 22 -10 13 -59
29 -199 24 -204 -8 -7 -137 72 -160 98 -9 10 -19 15 -21 11 -2 -5 -1 -53 4
-108 4 -55 8 -133 9 -172 l0 -72 -32 5 c-18 4 -50 10 -71 14 -38 8 -54 -1 -40
-22 4 -7 13 -53 19 -103 10 -78 9 -92 -4 -107 -8 -10 -10 -18 -4 -18 6 0 12 6
15 13 6 16 8 14 61 -73 l47 -75 -48 -7 c-26 -3 -70 -7 -98 -7 l-50 -2 -34 -74
c-25 -56 -45 -83 -83 -113 -27 -22 -45 -42 -41 -45 14 -9 178 -18 168 -10 -22
18 -63 90 -56 101 9 16 217 132 236 132 8 0 15 5 15 10 0 6 9 19 21 31 l20 20
-52 47 c-29 26 -60 53 -71 60 -10 7 -18 18 -18 25 0 17 110 197 120 197 6 0
10 6 10 13 0 29 152 211 213 256 106 78 105 78 240 2 64 -36 117 -69 117 -72
0 -3 -33 0 -72 7 -111 20 -107 21 -105 -35 1 -27 5 -52 9 -56 3 -3 45 11 92
31 52 23 90 34 95 28 13 -14 93 -313 86 -324 -5 -8 -171 -110 -179 -110 -5 0
-27 136 -28 168 -1 18 -4 32 -7 32 -3 -1 -28 -49 -56 -107 -27 -58 -60 -113
-72 -123 -31 -24 -243 -102 -260 -96 -8 3 -11 1 -8 -4 4 -6 98 -10 244 -10
138 0 241 -4 247 -10 6 -6 15 -6 24 0 13 8 13 10 -1 10 -9 0 -63 23 -120 52
l-104 51 50 13 c78 19 89 17 137 -25 l45 -40 43 90 c24 49 47 89 51 89 3 0 17
-56 29 -124 23 -122 23 -124 51 -128 24 -4 33 2 54 34 l26 39 -69 87 c-37 48
-71 94 -74 103 -4 9 11 60 33 114 22 53 39 98 37 99 -20 14 -164 132 -169 139
-6 8 25 226 35 254 6 15 -79 272 -95 288 -6 5 -5 -3 2 -18 13 -28 11 -30 -36
-73 -28 -24 -55 -43 -60 -44 -6 0 -46 36 -89 79 l-79 79 39 24 c22 13 61 37
88 52 l49 29 -7 -102 c-3 -57 -2 -100 2 -97 5 3 10 40 11 83 1 42 4 80 7 84 8
14 -8 39 -26 39 -28 0 -35 19 -14 35 11 8 16 15 12 15 -4 0 -42 -34 -84 -75
-42 -41 -80 -75 -83 -75 -4 0 -26 36 -49 79 -38 70 -40 80 -25 84 14 4 13 5
-5 6 -12 0 -25 -5 -27 -11z m172 -298 c109 -41 277 -136 273 -155 -3 -12 -256
-115 -283 -115 -23 0 -194 100 -202 118 -4 11 90 192 100 192 2 0 53 -18 112
-40z"/>
<path d="M8710 1710 c-8 -5 -10 -10 -5 -10 6 0 17 5 25 10 8 5 11 10 5 10 -5
0 -17 -5 -25 -10z"/>
<path d="M6075 2134 c-19 -15 -19 -15 6 -9 19 5 45 -3 90 -25 35 -18 66 -36
67 -41 2 -5 10 -9 18 -9 16 0 19 -16 5 -25 -8 -4 -4 -73 5 -83 1 -2 13 4 26
12 14 9 28 13 31 9 20 -19 3 12 -18 35 -34 36 -31 46 6 27 48 -26 44 -12 -7
20 l-46 29 33 29 c19 16 25 24 13 19 -11 -6 -26 -18 -34 -26 -18 -23 -33 -20
-103 16 -34 18 -64 34 -67 35 -3 1 -14 -5 -25 -13z"/>
<path d="M7010 2146 c0 -3 9 -10 20 -16 11 -6 20 -8 20 -6 0 3 -9 10 -20 16
-11 6 -20 8 -20 6z"/>
<path d="M7845 2129 c-4 -6 -5 -12 -2 -15 2 -3 7 2 10 11 7 17 1 20 -8 4z"/>
<path d="M6545 2121 c3 -5 -17 -22 -44 -38 -28 -15 -47 -30 -43 -33 4 -3 23
-25 42 -49 32 -41 34 -49 32 -109 -1 -36 -4 -73 -7 -82 -5 -16 5 -18 97 -19
65 -1 107 -6 115 -14 7 -7 15 -61 19 -126 6 -96 5 -113 -7 -106 -11 7 -12 6
-2 -6 11 -13 2 -31 -51 -107 -36 -49 -62 -93 -59 -95 2 -3 20 -63 38 -134 26
-98 31 -131 22 -143 -6 -8 -31 -37 -56 -65 -44 -47 -43 -47 15 8 33 32 64 54
69 50 4 -5 5 -3 1 4 -4 8 27 35 89 77 l97 64 -131 73 c-93 53 -126 76 -113 80
9 3 67 16 127 29 61 12 112 23 114 25 2 2 -14 19 -35 37 -88 75 -105 96 -95
115 22 40 51 137 43 142 -5 3 -23 26 -40 50 -17 24 -77 77 -132 118 -75 56
-100 81 -100 98 0 23 16 118 26 148 4 12 0 17 -16 17 -12 0 -19 -4 -15 -9z"/>
<path d="M5967 2071 l-79 -48 -64 -119 c-60 -114 -85 -173 -45 -109 10 17 48
59 84 94 62 61 65 65 51 86 -21 33 -9 51 62 91 35 20 66 40 70 45 8 14 5 12
-79 -40z"/>
<path d="M7066 2110 c9 -12 35 -129 39 -175 2 -24 17 -55 27 -55 7 0 7 5 -1
14 -9 10 -7 29 4 77 22 89 22 90 0 103 -11 6 -33 20 -50 31 -19 12 -26 14 -19
5z"/>
<path d="M6415 2100 c3 -5 8 -10 11 -10 2 0 4 5 4 10 0 6 -5 10 -11 10 -5 0
-7 -4 -4 -10z"/>
<path d="M6299 2083 c-13 -16 -12 -17 4 -4 16 13 21 21 13 21 -2 0 -10 -8 -17
-17z"/>
<path d="M1726 2045 c-29 -44 -71 -273 -96 -520 -5 -55 -15 -140 -21 -190 -6
-49 -12 -225 -13 -390 -1 -320 4 -360 47 -411 20 -23 26 -25 45 -15 26 14 135
232 178 355 29 84 63 134 82 122 7 -4 12 -19 12 -33 0 -15 10 -62 21 -105 56
-207 168 -181 324 75 25 42 50 77 54 77 5 0 11 -35 14 -77 9 -138 53 -203 135
-203 27 0 51 9 79 29 45 33 123 129 149 185 10 20 21 36 26 36 4 0 8 -43 8
-95 0 -105 20 -175 49 -175 24 0 48 28 133 160 41 63 85 124 96 134 l22 19 20
-49 c50 -120 74 -159 113 -177 49 -25 79 -14 166 57 55 46 155 153 182 198 5
7 11 9 16 5 4 -5 -3 -27 -16 -49 l-23 -41 22 -17 c19 -15 23 -30 30 -121 14
-179 69 -419 96 -419 17 0 18 22 4 70 -16 53 -49 278 -56 382 -5 73 -4 96 7
105 15 12 235 79 364 112 44 11 124 25 178 31 70 9 97 16 97 26 0 10 -14 14
-47 14 -60 0 -312 -52 -412 -84 -160 -52 -181 -57 -188 -40 -12 33 136 204
232 266 45 30 65 37 86 33 35 -8 56 23 39 55 -32 59 -169 -25 -296 -181 -31
-39 -58 -68 -61 -65 -6 6 22 343 43 516 15 122 43 291 51 299 2 3 10 -4 17
-15 14 -18 15 -18 22 -1 8 22 -1 96 -14 109 -17 17 -49 -1 -65 -35 -32 -67
-83 -447 -96 -719 -8 -185 -7 -179 -94 -280 -59 -70 -188 -175 -224 -184 -38
-10 -67 29 -98 129 -30 98 -48 127 -80 127 -28 0 -51 -26 -172 -199 -85 -123
-87 -124 -96 -95 -11 39 -1 168 22 274 16 72 17 87 5 99 -12 13 -16 12 -32 -2
-10 -10 -24 -34 -30 -55 -14 -46 -100 -190 -148 -249 -49 -60 -107 -97 -138
-89 -45 11 -59 63 -52 195 3 64 9 140 12 169 12 102 -34 89 -88 -25 -31 -67
-112 -185 -185 -270 -50 -59 -83 -68 -107 -30 -8 12 -26 67 -40 121 -23 93
-48 145 -72 153 -38 13 -108 -104 -198 -332 -78 -195 -96 -218 -115 -147 -16
55 -13 412 4 611 16 178 82 691 90 699 3 3 15 10 27 17 20 9 23 18 22 63 -2
79 -36 107 -68 57z"/>
<path d="M6362 2004 c-1 -15 2 -22 8 -19 12 7 13 32 2 39 -4 2 -9 -7 -10 -20z"/>
<path d="M6740 2003 c13 -18 25 -33 27 -33 8 0 -17 38 -33 51 -11 9 -9 2 6
-18z"/>
<path d="M5960 2005 c-7 -9 -10 -18 -6 -22 3 -3 6 -1 6 5 0 7 7 12 15 12 8 0
15 5 15 10 0 15 -16 12 -30 -5z"/>
<path d="M7350 1914 c-52 -56 -100 -101 -107 -99 -9 3 -9 -4 -1 -26 11 -33 23
-40 15 -8 -5 18 -2 20 21 15 15 -3 77 -15 137 -25 61 -11 118 -22 128 -26 16
-7 16 -3 -4 46 -11 30 -34 90 -51 134 -17 44 -33 83 -37 86 -3 3 -49 -41 -101
-97z"/>
<path d="M7780 1978 c-12 -22 -12 -22 6 -6 10 10 15 20 12 24 -4 3 -12 -5 -18
-18z"/>
<path d="M6440 1985 c0 -8 73 -36 78 -30 3 2 -1 7 -9 9 -8 3 -26 10 -41 15
-16 6 -28 8 -28 6z"/>
<path d="M5984 1932 c15 -113 15 -136 -1 -154 -9 -10 -11 -18 -5 -18 6 0 14 5
17 10 5 8 12 7 23 -2 15 -11 15 -11 4 3 -15 20 -14 20 82 79 69 42 70 42 99
25 15 -9 31 -14 34 -11 3 3 -7 10 -22 16 -23 9 -26 14 -21 38 6 27 6 27 -10 5
-14 -20 -18 -21 -47 -8 -18 7 -61 24 -95 39 l-64 25 6 -47z"/>
<path d="M8170 1965 c-6 -8 -10 -19 -8 -26 2 -6 9 0 16 15 13 29 10 33 -8 11z"/>
<path d="M7870 1955 c14 -8 30 -14 35 -14 6 0 -1 6 -15 14 -14 8 -29 14 -35
14 -5 0 1 -6 15 -14z"/>
<path d="M8779 1933 c-13 -16 -12 -17 4 -4 16 13 21 21 13 21 -2 0 -10 -8 -17
-17z"/>
<path d="M6224 1924 c-18 -14 -18 -15 4 -4 12 6 22 13 22 15 0 8 -5 6 -26 -11z"/>
<path d="M6800 1910 c6 -11 13 -20 16 -20 2 0 0 9 -6 20 -6 11 -13 20 -16 20
-2 0 0 -9 6 -20z"/>
<path d="M6376 1882 c-3 -5 1 -9 9 -9 8 0 15 4 15 9 0 4 -4 8 -9 8 -6 0 -12
-4 -15 -8z"/>
<path d="M8640 1870 c-6 -11 -8 -20 -6 -20 3 0 10 9 16 20 6 11 8 20 6 20 -3
0 -10 -9 -16 -20z"/>
<path d="M7150 1876 c0 -2 8 -10 18 -17 15 -13 16 -12 3 4 -13 16 -21 21 -21
13z"/>
<path d="M7874 1847 c-28 -18 -63 -48 -78 -67 -48 -64 -209 -218 -315 -301
-97 -76 -105 -80 -118 -63 -7 10 -13 13 -13 8 0 -26 35 -44 155 -79 72 -21
134 -42 140 -47 15 -14 39 -10 27 5 -9 11 -38 275 -30 282 8 7 243 -156 246
-171 4 -17 34 35 138 235 30 58 54 109 54 115 -1 6 -10 -6 -21 -26 -11 -21
-22 -38 -26 -38 -10 0 -193 103 -193 109 0 3 20 19 45 34 25 16 45 31 45 33 0
6 -2 5 -56 -29z"/>
<path d="M8126 1863 c-6 -14 -5 -15 5 -6 7 7 10 15 7 18 -3 3 -9 -2 -12 -12z"/>
<path d="M6274 1851 c1 -12 -13 -18 -60 -25 l-61 -8 -21 -92 c-12 -50 -22
-100 -21 -111 1 -15 3 -13 8 7 8 35 148 197 183 212 l27 12 -28 11 c-24 9 -28
8 -27 -6z"/>
<path d="M6480 1850 c-6 -11 -8 -20 -6 -20 3 0 10 9 16 20 6 11 8 20 6 20 -3
0 -10 -9 -16 -20z"/>
<path d="M9011 1854 c0 -11 3 -14 6 -6 3 7 2 16 -1 19 -3 4 -6 -2 -5 -13z"/>
<path d="M7190 1846 c0 -2 8 -10 18 -17 15 -13 16 -12 3 4 -13 16 -21 21 -21
13z"/>
<path d="M6435 1817 c10 -15 20 -25 23 -22 3 3 -5 16 -17 28 l-23 22 17 -28z"/>
<path d="M6375 1815 c34 -16 72 -21 45 -6 -8 5 -28 11 -45 14 l-30 6 30 -14z"/>
<path d="M6860 1796 c0 -9 5 -16 10 -16 6 0 10 4 10 9 0 6 -4 13 -10 16 -5 3
-10 -1 -10 -9z"/>
<path d="M7760 1780 c-9 -6 -10 -10 -3 -10 6 0 15 5 18 10 8 12 4 12 -15 0z"/>
<path d="M7710 1755 c-14 -8 -20 -14 -14 -15 5 0 19 7 30 15 24 18 16 19 -16
0z"/>
<path d="M6470 1755 c0 -5 5 -17 10 -25 5 -8 10 -10 10 -5 0 6 -5 17 -10 25
-5 8 -10 11 -10 5z"/>
<path d="M6040 1736 c0 -2 8 -10 18 -17 15 -13 16 -12 3 4 -13 16 -21 21 -21
13z"/>
<path d="M7660 1729 c0 -5 5 -7 10 -4 6 3 10 8 10 11 0 2 -4 4 -10 4 -5 0 -10
-5 -10 -11z"/>
<path d="M7443 1678 c-40 -28 -71 -54 -68 -56 2 -2 35 17 72 43 80 57 91 65
78 65 -6 -1 -43 -24 -82 -52z"/>
<path d="M7210 1711 c0 -5 7 -15 17 -22 15 -13 15 -12 4 9 -12 23 -21 28 -21
13z"/>
<path d="M7250 1708 c0 -3 9 -6 20 -5 11 1 20 5 20 9 0 3 -9 6 -20 5 -11 -1
-20 -5 -20 -9z"/>
<path d="M5919 1693 c-13 -16 -12 -17 4 -4 16 13 21 21 13 21 -2 0 -10 -8 -17
-17z"/>
<path d="M6537 1609 c27 -58 50 -102 51 -98 2 5 19 9 37 9 19 0 36 3 39 8 2 4
-14 6 -36 4 -43 -5 -44 1 -5 53 14 18 12 21 -37 48 -28 16 -61 41 -74 55 -16
19 -9 -3 25 -79z"/>
<path d="M6070 1696 c0 -2 8 -10 18 -17 15 -13 16 -12 3 4 -13 16 -21 21 -21
13z"/>
<path d="M7290 1684 c0 -6 7 -19 16 -30 14 -18 14 -18 3 6 -14 31 -19 36 -19
24z"/>
<path d="M8626 1667 c3 -10 9 -15 12 -12 3 3 0 11 -7 18 -10 9 -11 8 -5 -6z"/>
<path d="M6860 1640 c12 -16 24 -30 26 -30 3 0 -4 14 -16 30 -12 17 -24 30
-26 30 -3 0 4 -13 16 -30z"/>
<path d="M7260 1661 c0 -5 5 -13 10 -16 6 -3 10 -2 10 4 0 5 -4 13 -10 16 -5
3 -10 2 -10 -4z"/>
<path d="M5838 1567 c-21 -39 -34 -74 -30 -77 4 -3 36 -40 70 -82 l63 -78 25
-127 c13 -70 22 -135 18 -145 -3 -12 6 -7 30 14 20 18 36 34 36 36 0 3 -9 -3
-20 -13 -11 -10 -23 -15 -26 -12 -4 3 0 42 8 86 l15 80 -33 32 c-18 17 -37 43
-43 58 -15 37 -62 231 -65 263 -1 15 -4 29 -7 32 -2 3 -21 -28 -41 -67z"/>
<path d="M8584 1618 l-19 -23 23 19 c12 11 22 21 22 23 0 8 -8 2 -26 -19z"/>
<path d="M7320 1605 c0 -6 -9 -20 -20 -30 -17 -16 -20 -16 -20 -2 0 9 -4 18
-9 21 -5 4 -7 -3 -4 -14 8 -31 16 -31 62 -1 41 28 42 29 17 33 -16 3 -26 1
-26 -7z"/>
<path d="M5730 1597 c0 -8 10 -22 23 -33 l22 -19 -20 23 c-16 20 -17 25 -5 32
13 8 12 10 -2 10 -10 0 -18 -6 -18 -13z"/>
<path d="M5920 1606 c0 -3 9 -10 20 -16 11 -6 20 -8 20 -6 0 3 -9 10 -20 16
-11 6 -20 8 -20 6z"/>
<path d="M6650 1597 c0 -7 72 -48 76 -44 2 2 -14 14 -36 26 -22 12 -40 20 -40
18z"/>
<path d="M7433 1593 c31 -2 83 -2 115 0 31 2 5 3 -58 3 -63 0 -89 -1 -57 -3z"/>
<path d="M6106 1577 c3 -10 9 -15 12 -12 3 3 0 11 -7 18 -10 9 -11 8 -5 -6z"/>
<path d="M6850 1570 c-13 -9 -13 -10 0 -10 8 0 22 5 30 10 13 9 13 10 0 10 -8
0 -22 -5 -30 -10z"/>
<path d="M5990 1566 c0 -3 9 -10 20 -16 11 -6 20 -8 20 -6 0 3 -9 10 -20 16
-11 6 -20 8 -20 6z"/>
<path d="M6094 1519 c0 -25 6 -51 12 -57 13 -12 11 41 -4 78 -8 22 -9 19 -8
-21z"/>
<path d="M8900 1545 c0 -5 5 -17 10 -25 5 -8 10 -10 10 -5 0 6 -5 17 -10 25
-5 8 -10 11 -10 5z"/>
<path d="M6060 1526 c0 -2 7 -9 15 -16 9 -7 15 -8 15 -2 0 5 -7 12 -15 16 -8
3 -15 4 -15 2z"/>
<path d="M8824 1498 l-19 -23 23 19 c12 11 22 21 22 23 0 8 -8 2 -26 -19z"/>
<path d="M8769 1433 l-34 -38 38 34 c34 33 42 41 34 41 -2 0 -19 -17 -38 -37z"/>
<path d="M6014 1398 l-19 -23 23 19 c21 18 27 26 19 26 -2 0 -12 -10 -23 -22z"/>
<path d="M6053 1389 c-3 -12 -20 -28 -37 -36 -28 -13 -29 -14 -4 -9 15 4 28 1
30 -5 2 -6 8 8 14 30 6 23 9 41 7 41 -3 0 -7 -9 -10 -21z"/>
<path d="M7846 1395 c-11 -8 -15 -15 -10 -15 6 0 19 7 30 15 10 8 15 14 9 14
-5 0 -19 -6 -29 -14z"/>
<path d="M2424 1345 c-7 -29 10 -55 37 -55 25 0 25 41 1 63 -25 23 -31 21 -38
-8z"/>
<path d="M5969 1353 c-13 -16 -12 -17 4 -4 9 7 17 15 17 17 0 8 -8 3 -21 -13z"/>
<path d="M7740 1340 c-30 -16 -51 -29 -47 -30 10 0 107 49 107 55 0 7 1 7 -60
-25z"/>
<path d="M4545 1348 c-3 -7 -6 -53 -7 -103 l-3 -90 -90 -3 c-49 -2 -94 -8
-100 -14 -7 -7 15 -9 76 -4 47 4 93 4 102 0 15 -5 17 -22 17 -114 0 -60 4
-111 9 -114 15 -10 21 23 21 124 0 115 -6 110 128 110 51 0 82 4 82 11 0 7
-35 9 -102 7 l-103 -3 -3 103 c-2 59 -7 102 -13 102 -5 0 -12 -6 -14 -12z"/>
<path d="M5720 1345 c0 -8 2 -15 4 -15 2 0 6 7 10 15 3 8 1 15 -4 15 -6 0 -10
-7 -10 -15z"/>
<path d="M7390 1356 c0 -2 8 -10 18 -17 15 -13 16 -12 3 4 -13 16 -21 21 -21
13z"/>
<path d="M6113 1280 c0 -41 2 -58 4 -37 2 20 2 54 0 75 -2 20 -4 3 -4 -38z"/>
<path d="M8677 1327 c-9 -12 -29 -37 -43 -55 -24 -29 -27 -71 -5 -58 5 3 35
-9 67 -27 50 -28 61 -40 76 -79 9 -26 19 -58 21 -72 5 -43 14 -40 58 26 23 35
46 65 51 66 25 11 -1 21 -68 27 l-76 8 -35 76 c-27 60 -32 80 -24 94 16 25 -1
21 -22 -6z"/>
<path d="M5768 1333 c12 -2 32 -2 45 0 12 2 2 4 -23 4 -25 0 -35 -2 -22 -4z"/>
<path d="M6609 1313 c-13 -16 -12 -17 4 -4 16 13 21 21 13 21 -2 0 -10 -8 -17
-17z"/>
<path d="M7430 1306 c0 -2 8 -10 18 -17 15 -13 16 -12 3 4 -13 16 -21 21 -21
13z"/>
<path d="M5904 1278 l-19 -23 23 19 c21 18 27 26 19 26 -2 0 -12 -10 -23 -22z"/>
<path d="M8609 1273 c-13 -16 -12 -17 4 -4 16 13 21 21 13 21 -2 0 -10 -8 -17
-17z"/>
<path d="M6531 1264 c0 -11 3 -14 6 -6 3 7 2 16 -1 19 -3 4 -6 -2 -5 -13z"/>
<path d="M7620 1264 c-18 -10 -43 -12 -88 -7 l-63 6 7 -64 c4 -35 7 -70 7 -77
0 -7 38 24 84 70 73 73 90 91 81 87 -2 -1 -14 -7 -28 -15z"/>
<path d="M7675 1250 c3 -5 8 -10 11 -10 2 0 4 5 4 10 0 6 -5 10 -11 10 -5 0
-7 -4 -4 -10z"/>
<path d="M7760 1256 c0 -2 11 -6 25 -8 13 -3 22 -1 19 3 -5 9 -44 13 -44 5z"/>
<path d="M5864 1228 l-19 -23 23 19 c12 11 22 21 22 23 0 8 -8 2 -26 -19z"/>
<path d="M6055 1210 c10 -11 20 -20 23 -20 3 0 -3 9 -13 20 -10 11 -20 20 -23
20 -3 0 3 -9 13 -20z"/>
<path d="M7802 1205 c0 -16 2 -22 5 -12 2 9 2 23 0 30 -3 6 -5 -1 -5 -18z"/>
<path d="M6521 1204 c0 -6 -20 -36 -43 -65 l-41 -54 47 50 c26 27 45 56 42 65
-2 8 -4 10 -5 4z"/>
<path d="M5824 1178 l-19 -23 23 19 c12 11 22 21 22 23 0 8 -8 2 -26 -19z"/>
<path d="M6105 1179 c-4 -6 -4 -13 -1 -16 3 -3 1 -12 -6 -20 -8 -11 -7 -12 6
-7 9 3 16 17 16 30 0 26 -5 30 -15 13z"/>
<path d="M8675 1150 c10 -11 20 -20 23 -20 3 0 -3 9 -13 20 -10 11 -20 20 -23
20 -3 0 3 -9 13 -20z"/>
<path d="M9411 1100 c14 -31 19 -36 19 -24 0 6 -7 19 -16 30 -14 18 -14 18 -3
-6z"/>
<path d="M8725 1090 c10 -11 20 -20 23 -20 3 0 -3 9 -13 20 -10 11 -20 20 -23
20 -3 0 3 -9 13 -20z"/>
<path d="M5744 1064 c5 -10 24 -62 43 -114 34 -95 53 -129 53 -98 0 9 11 29
24 45 l24 28 -76 79 c-41 44 -72 70 -68 60z"/>
<path d="M6414 1058 l-19 -23 23 19 c12 11 22 21 22 23 0 8 -8 2 -26 -19z"/>
<path d="M7434 1069 c-3 -6 -1 -16 5 -22 8 -8 11 -5 11 11 0 24 -5 28 -16 11z"/>
<path d="M8673 1031 c6 -16 16 -27 23 -24 9 3 6 12 -9 29 -26 31 -28 30 -14
-5z"/>
<path d="M8750 1056 c0 -2 8 -10 18 -17 15 -13 16 -12 3 4 -13 16 -21 21 -21
13z"/>
<path d="M9440 1034 c0 -6 7 -19 16 -30 14 -18 14 -18 3 6 -14 31 -19 36 -19
24z"/>
<path d="M6545 1020 c-3 -5 -1 -10 4 -10 6 0 11 5 11 10 0 6 -2 10 -4 10 -3 0
-8 -4 -11 -10z"/>
<path d="M6365 1000 c-10 -11 -14 -20 -9 -20 5 0 15 9 22 20 7 11 11 20 9 20
-2 0 -12 -9 -22 -20z"/>
<path d="M7755 1005 c-6 -9 -61 -29 -123 -46 -90 -24 -116 -28 -128 -18 -12
10 -13 9 -9 -3 4 -11 -7 -25 -34 -44 -37 -27 -54 -54 -32 -54 5 0 18 -15 29
-33 18 -31 18 -39 7 -98 -6 -35 -15 -74 -19 -86 -5 -14 -3 -23 3 -23 6 0 11
12 11 26 0 23 3 25 28 20 20 -5 23 -4 12 3 -13 9 -12 12 5 25 27 20 30 20 52
-8 11 -14 32 -26 53 -29 34 -5 37 -2 93 75 32 44 56 82 54 84 -3 3 -53 -18
-113 -46 l-108 -51 -18 23 c-10 13 -21 33 -24 45 -9 33 9 148 24 149 6 1 65 2
131 3 l119 1 5 33 c2 17 2 40 -2 49 -6 15 -8 16 -16 3z"/>
<path d="M8740 995 c14 -8 30 -14 35 -14 6 0 -1 6 -15 14 -14 8 -29 14 -35 14
-5 0 1 -6 15 -14z"/>
<path d="M9390 1006 c0 -3 9 -10 20 -16 11 -6 20 -8 20 -6 0 3 -9 10 -20 16
-11 6 -20 8 -20 6z"/>
<path d="M5964 963 c-4 -21 -8 -46 -10 -57 -2 -10 -8 -24 -14 -31 -8 -9 -8
-15 0 -20 7 -4 7 -12 0 -25 -5 -10 -10 -31 -9 -47 1 -22 3 -18 11 17 l10 45
19 -23 c10 -13 27 -35 37 -49 l19 -25 90 21 c50 12 99 18 110 14 10 -3 15 -3
11 2 -4 4 -2 15 5 23 10 13 9 14 -10 3 -18 -9 -45 -6 -148 20 -117 29 -126 33
-121 53 10 44 18 116 13 116 -4 0 -9 -17 -13 -37z"/>
<path d="M6457 993 c-9 -2 -15 -8 -12 -13 3 -5 12 -7 20 -4 8 3 31 -4 52 -16
21 -12 29 -14 18 -6 -11 9 -28 23 -38 31 -9 8 -18 14 -20 14 -1 -1 -10 -3 -20
-6z"/>
<path d="M6125 953 c-71 -39 -66 -44 7 -7 42 21 55 24 75 15 27 -13 22 4 -5
17 -12 6 -36 -2 -77 -25z"/>
<path d="M9465 970 c3 -5 -6 -27 -21 -47 l-26 -38 30 35 c32 36 41 60 21 60
-5 0 -7 -4 -4 -10z"/>
<path d="M8335 928 l-40 -43 43 40 c39 36 47 45 39 45 -2 0 -21 -19 -42 -42z"/>
<path d="M8614 938 l-29 -33 33 29 c17 17 32 31 32 33 0 8 -8 1 -36 -29z"/>
<path d="M8860 956 c0 -3 9 -10 20 -16 11 -6 20 -8 20 -6 0 3 -9 10 -20 16
-11 6 -20 8 -20 6z"/>
<path d="M6317 934 c-8 -8 1 -24 12 -24 4 0 8 7 8 15 0 16 -9 20 -20 9z"/>
<path d="M6375 916 l-24 -21 47 -51 c26 -28 58 -54 72 -57 l25 -6 -23 17 c-13
10 -21 24 -18 32 2 8 7 34 10 56 6 42 6 42 -30 46 -26 3 -42 -1 -59 -16z"/>
<path d="M7797 902 c-4 -24 -15 -55 -24 -69 -10 -16 -13 -27 -6 -31 5 -4 13
-27 16 -52 3 -25 9 -64 13 -87 6 -38 4 -42 -17 -46 l-24 -4 23 -2 c12 0 25 5
28 12 2 7 3 82 2 167 -2 111 -5 143 -11 112z"/>
<path d="M6560 915 c0 -9 5 -13 10 -10 10 6 100 -169 100 -194 0 -22 16 -8 91
84 95 115 97 117 66 110 -23 -6 -195 9 -244 21 -17 5 -23 2 -23 -11z"/>
<path d="M6018 904 c-39 -21 -35 -28 5 -8 37 19 44 24 31 24 -5 -1 -21 -8 -36
-16z"/>
<path d="M5900 906 c0 -2 8 -10 18 -17 15 -13 16 -12 3 4 -13 16 -21 21 -21
13z"/>
<path d="M6314 880 c0 -10 6 -16 13 -13 7 3 13 9 13 13 0 4 -6 10 -13 13 -7 3
-13 -3 -13 -13z"/>
<path d="M6499 853 l-24 -28 28 24 c15 14 27 26 27 28 0 8 -8 1 -31 -24z"/>
<path d="M8256 851 c-15 -17 -16 -24 -5 -60 7 -23 14 -39 17 -37 2 3 -1 19 -7
37 -9 26 -8 37 4 56 19 28 14 30 -9 4z"/>
<path d="M6274 838 l-19 -23 23 19 c12 11 22 21 22 23 0 8 -8 2 -26 -19z"/>
<path d="M9196 838 c10 -15 28 -29 38 -32 10 -3 15 -2 10 2 -5 4 -22 18 -38
32 l-29 25 19 -27z"/>
<path d="M7427 798 c8 -44 13 -48 13 -10 0 17 -4 34 -10 37 -6 4 -7 -6 -3 -27z"/>
<path d="M9447 793 c-12 -12 -7 -22 8 -17 8 4 15 10 15 15 0 11 -14 12 -23 2z"/>
<path d="M8459 753 c-13 -16 -12 -17 4 -4 9 7 17 15 17 17 0 8 -8 3 -21 -13z"/>
<path d="M9303 743 c9 -9 20 -13 24 -9 4 4 1 11 -7 16 -25 16 -35 11 -17 -7z"/>
<path d="M5920 730 c0 -5 5 -10 11 -10 5 0 7 5 4 10 -3 6 -8 10 -11 10 -2 0
-4 -4 -4 -10z"/>
<path d="M6329 720 c13 -11 28 -20 33 -20 6 0 -1 9 -15 20 -33 26 -49 26 -18
0z"/>
<path d="M9345 720 c3 -4 14 -10 25 -13 11 -3 18 -2 15 3 -3 4 -14 10 -25 13
-11 3 -18 2 -15 -3z"/>
<path d="M8419 703 c-13 -16 -12 -17 4 -4 9 7 17 15 17 17 0 8 -8 3 -21 -13z"/>
<path d="M6075 676 c10 -14 19 -26 22 -26 7 0 -17 39 -28 46 -6 3 -3 -5 6 -20z"/>
<path d="M9395 682 c-3 -9 -14 -28 -24 -42 -19 -24 -20 -24 -43 -5 -20 17 -20
16 2 -7 24 -26 30 -27 148 -30 67 -2 122 -1 121 2 0 3 -45 26 -99 52 -86 41
-100 45 -105 30z"/>
<path d="M6363 650 c-10 -22 -23 -38 -29 -36 -6 2 -11 -2 -11 -10 0 -17 14
-17 112 -3 41 6 75 16 75 21 0 5 -6 8 -12 5 -7 -2 -31 8 -53 23 -22 15 -45 30
-52 33 -7 5 -18 -8 -30 -33z"/>
<path d="M9274 667 c1 -20 4 -23 14 -15 7 6 9 14 5 17 -4 4 -11 10 -14 14 -4
5 -6 -3 -5 -16z"/>
<path d="M8380 659 c0 -5 5 -7 10 -4 6 3 10 8 10 11 0 2 -4 4 -10 4 -5 0 -10
-5 -10 -11z"/>
<path d="M6550 640 c-19 -11 -31 -19 -27 -20 11 0 67 29 67 35 0 7 -1 7 -40
-15z"/>
<path d="M6107 629 c7 -7 15 -10 18 -7 3 3 -2 9 -12 12 -14 6 -15 5 -6 -5z"/>
<path d="M9220 615 c-7 -9 -8 -15 -2 -15 5 0 12 7 16 15 3 8 4 15 2 15 -2 0
-9 -7 -16 -15z"/>
<path d="M8556 610 c-19 -6 -19 -7 -1 -13 20 -8 29 -4 24 11 -2 5 -13 6 -23 2z"/>
<path d="M7585 600 c-4 -6 3 -10 14 -10 25 0 27 6 6 13 -8 4 -17 2 -20 -3z"/>
<path d="M5798 369 c-38 -14 -61 -67 -47 -108 14 -39 59 -65 99 -56 77 17 90
124 19 160 -32 17 -34 17 -71 4z m76 -35 c9 -8 16 -28 16 -44 0 -36 -23 -60
-57 -60 -55 0 -83 62 -46 102 20 22 66 24 87 2z"/>
<path d="M7174 370 c-52 -21 -69 -88 -34 -133 52 -66 149 -31 150 54 0 58 -63
101 -116 79z m80 -42 c33 -47 7 -98 -50 -98 -41 0 -68 34 -58 74 12 49 81 64
108 24z"/>
<path d="M5940 285 c0 -50 4 -85 10 -85 6 0 10 18 10 40 0 39 1 40 35 40 19 0
35 5 35 10 0 6 -16 10 -35 10 -31 0 -35 3 -35 25 0 23 4 25 40 25 22 0 40 5
40 10 0 6 -22 10 -50 10 l-50 0 0 -85z"/>
<path d="M6060 285 c0 -50 4 -85 10 -85 6 0 10 18 10 40 0 39 1 40 35 40 19 0
35 5 35 10 0 6 -16 10 -35 10 -31 0 -35 3 -35 25 0 23 4 25 40 25 22 0 40 5
40 10 0 6 -22 10 -50 10 l-50 0 0 -85z"/>
<path d="M6170 360 c0 -5 7 -10 15 -10 12 0 15 -13 15 -60 0 -47 -3 -60 -15
-60 -8 0 -15 -7 -15 -15 0 -11 11 -15 39 -15 44 0 65 18 32 27 -18 5 -21 13
-21 64 0 52 2 59 20 59 11 0 20 5 20 10 0 6 -20 10 -45 10 -25 0 -45 -4 -45
-10z"/>
<path d="M6291 344 c-23 -29 -27 -80 -8 -105 35 -46 105 -47 134 -3 20 31 7
46 -15 17 -26 -32 -55 -36 -85 -12 -30 23 -34 54 -11 87 19 28 65 29 89 2 19
-21 35 -26 35 -12 0 5 -9 18 -20 30 -31 33 -92 30 -119 -4z"/>
<path d="M6450 284 l0 -85 53 3 c63 4 69 22 9 26 -38 3 -43 6 -40 25 2 17 11
23 41 25 20 2 37 7 37 12 0 5 -17 10 -37 12 -31 2 -39 7 -41 26 -3 20 1 22 37
22 22 0 43 5 46 10 4 6 -15 10 -49 10 l-56 0 0 -86z"/>
<path d="M6980 365 c0 -3 11 -23 24 -44 14 -21 26 -56 28 -76 4 -52 28 -59 28
-9 0 23 11 54 30 85 21 35 26 49 16 49 -8 0 -24 -16 -36 -36 l-22 -35 -25 35
c-21 31 -43 47 -43 31z"/>
<path d="M7320 301 c0 -61 3 -72 22 -85 30 -21 50 -20 82 5 23 18 26 27 26 85
0 49 -3 64 -15 64 -11 0 -15 -16 -17 -67 -3 -67 -4 -68 -32 -71 -37 -5 -46 10
-46 81 0 31 -4 57 -10 57 -6 0 -10 -30 -10 -69z"/>
<path d="M7477 288 c2 -99 23 -124 23 -27 l0 63 43 -62 c23 -34 45 -62 50 -62
4 0 7 38 7 85 0 95 -17 117 -22 28 l-3 -57 -39 57 c-22 31 -44 57 -50 57 -7 0
-10 -29 -9 -82z"/>
<path d="M7641 344 c-30 -39 -27 -80 9 -116 26 -25 36 -29 63 -24 36 7 64 32
69 61 3 17 -3 20 -39 20 -51 0 -58 -18 -11 -25 l33 -5 -28 -19 c-23 -15 -32
-17 -53 -8 -31 15 -47 54 -35 86 16 40 82 51 103 16 15 -23 28 -26 28 -7 0 26
-36 47 -78 47 -32 0 -45 -6 -61 -26z"/>
<path d="M7921 289 c-35 -91 -34 -89 -21 -89 5 0 16 14 25 30 11 21 23 30 40
30 17 0 29 -9 40 -30 17 -32 42 -42 31 -12 -39 104 -61 152 -72 152 -7 0 -26
-36 -43 -81z m59 4 c0 -7 -9 -13 -20 -13 -17 0 -18 3 -8 25 8 19 14 22 20 13
4 -7 8 -19 8 -25z"/>
<path d="M8060 285 c0 -50 4 -85 10 -85 6 0 10 32 10 76 l0 75 33 -3 c27 -2
32 -7 32 -28 0 -20 -6 -26 -27 -28 -16 -2 -28 -6 -28 -10 1 -4 16 -24 35 -46
40 -45 70 -46 32 0 -25 29 -25 30 -6 42 22 14 26 61 7 80 -7 7 -31 12 -55 12
l-43 0 0 -85z"/>
<path d="M8206 351 c-9 -10 -19 -35 -23 -54 -5 -31 -1 -40 25 -67 17 -17 41
-30 55 -30 28 0 77 35 77 56 0 20 -9 18 -29 -7 -38 -47 -120 -8 -106 50 12 51
68 68 105 31 23 -23 30 -25 30 -7 0 44 -101 65 -134 28z"/>
<path d="M8360 290 c0 -64 3 -80 15 -80 10 0 15 11 15 35 0 33 2 35 35 35 33
0 35 -2 35 -35 0 -24 5 -35 15 -35 12 0 15 16 15 80 0 64 -3 80 -15 80 -10 0
-15 -11 -15 -35 0 -33 -2 -35 -35 -35 -33 0 -35 2 -35 35 0 24 -5 35 -15 35
-12 0 -15 -16 -15 -80z"/>
<path d="M8500 360 c0 -5 7 -10 15 -10 12 0 15 -13 15 -60 0 -47 -3 -60 -15
-60 -8 0 -15 -7 -15 -15 0 -11 12 -15 45 -15 33 0 45 4 45 15 0 8 -7 15 -15
15 -12 0 -15 13 -15 60 0 47 3 60 15 60 8 0 15 5 15 10 0 6 -20 10 -45 10 -25
0 -45 -4 -45 -10z"/>
<path d="M8605 360 c3 -5 17 -10 31 -10 23 0 24 -2 24 -75 0 -43 4 -75 10 -75
6 0 10 32 10 75 0 73 1 75 25 75 14 0 25 5 25 10 0 6 -29 10 -66 10 -41 0 -63
-4 -59 -10z"/>
<path d="M8750 285 l0 -85 50 0 c38 0 50 4 50 15 0 11 -11 15 -40 15 -36 0
-40 3 -40 25 0 23 4 25 40 25 22 0 40 5 40 10 0 6 -18 10 -40 10 -36 0 -40 3
-40 25 0 23 4 25 40 25 22 0 40 5 40 10 0 6 -22 10 -50 10 l-50 0 0 -85z"/>
<path d="M8892 347 c-26 -27 -29 -82 -7 -114 30 -42 111 -38 135 7 14 26 3 41
-13 19 -7 -9 -23 -21 -36 -28 -51 -28 -105 56 -65 100 23 25 62 24 91 -3 31
-29 42 -14 13 17 -31 33 -88 34 -118 2z"/>
<path d="M9040 360 c0 -5 11 -10 25 -10 24 0 25 -2 25 -75 0 -43 4 -75 10 -75
6 0 10 32 10 75 0 73 1 75 24 75 14 0 28 5 31 10 4 6 -18 10 -59 10 -37 0 -66
-4 -66 -10z"/>
<path d="M9180 307 c0 -72 12 -94 56 -103 52 -10 74 21 74 101 0 53 -3 65 -16
65 -13 0 -15 -11 -14 -57 3 -86 4 -85 -32 -81 l-33 3 -3 68 c-2 51 -6 67 -17
67 -12 0 -15 -15 -15 -63z"/>
<path d="M9340 286 c0 -51 4 -86 10 -86 6 0 10 32 10 76 l0 75 33 -3 c27 -2
32 -7 32 -28 0 -18 -6 -26 -22 -28 -13 -2 -23 -8 -23 -13 0 -16 68 -84 76 -76
4 4 -3 18 -16 32 l-23 25 23 25 c20 21 22 30 14 53 -8 24 -15 27 -62 30 l-52
3 0 -85z"/>
<path d="M9480 285 l0 -85 50 0 c38 0 50 4 50 15 0 11 -11 15 -40 15 -36 0
-40 3 -40 25 0 23 4 25 40 25 22 0 40 5 40 10 0 6 -18 10 -40 10 -36 0 -40 3
-40 25 0 23 4 25 40 25 22 0 40 5 40 10 0 6 -22 10 -50 10 l-50 0 0 -85z"/>
<path d="M6686 314 c-24 -24 -19 -30 7 -8 12 10 24 20 26 21 2 2 -1 3 -7 3 -6
0 -18 -7 -26 -16z"/>
<path d="M6758 318 c12 -6 26 -25 31 -42 7 -25 9 -27 10 -8 1 24 -31 62 -51
61 -7 0 -3 -5 10 -11z"/>
<path d="M6811 268 c1 -35 4 -51 6 -36 3 20 11 28 31 31 l27 4 -27 2 c-23 1
-28 6 -28 25 0 20 6 25 33 29 31 4 31 4 -5 5 l-38 2 1 -62z"/>
<path d="M1487 293 c-4 -3 -6 -36 -5 -72 l1 -66 6 60 c5 51 9 60 26 60 26 0
32 -35 10 -51 -17 -13 -17 -15 -1 -39 10 -15 20 -24 23 -21 3 3 0 13 -7 21
-10 12 -10 19 -2 27 19 19 14 66 -7 78 -23 12 -35 13 -44 3z"/>
<path d="M1705 280 c-35 -38 -13 -130 30 -130 7 0 19 7 26 16 12 15 11 16 -9
10 -31 -10 -52 9 -52 48 0 36 15 56 43 56 10 0 15 5 12 10 -10 16 -30 12 -50
-10z"/>
<path d="M2150 291 c0 -5 7 -12 16 -15 14 -5 15 -15 10 -55 -4 -30 -2 -52 4
-56 6 -4 10 16 10 54 0 34 4 61 10 61 6 0 10 5 10 10 0 6 -13 10 -30 10 -16 0
-30 -4 -30 -9z"/>
<path d="M2344 286 c-3 -7 -4 -40 -2 -72 3 -56 4 -59 31 -62 15 -2 27 1 27 7
0 6 -12 11 -26 11 -20 0 -25 4 -22 22 2 14 12 25 28 29 l25 6 -25 4 c-17 3
-26 11 -28 27 -3 18 1 22 22 22 14 0 26 5 26 10 0 15 -50 12 -56 -4z"/>
<path d="M2551 274 c-24 -30 -26 -52 -10 -88 13 -28 32 -38 54 -30 23 9 18 23
-6 17 -25 -7 -49 19 -49 52 0 26 29 55 56 55 16 0 17 2 4 10 -22 14 -26 13
-49 -16z"/>
<path d="M2745 290 c-3 -5 1 -10 9 -10 13 0 16 -12 16 -61 0 -37 4 -58 10 -54
6 3 10 31 10 61 0 30 5 54 10 54 6 0 10 5 10 10 0 6 -13 10 -29 10 -17 0 -33
-4 -36 -10z"/>
<path d="M2952 288 c-19 -19 -14 -42 13 -68 14 -13 25 -30 25 -38 0 -10 -8
-13 -25 -10 -14 3 -25 2 -25 -3 0 -14 19 -21 40 -14 28 9 25 46 -5 75 -31 29
-33 55 -4 47 12 -3 19 -1 16 6 -5 16 -21 19 -35 5z"/>
<path d="M1307 283 c-9 -16 -37 -117 -33 -120 2 -3 16 3 31 13 25 16 26 16 41
-2 17 -21 17 -19 -10 64 -18 53 -21 58 -29 45z m19 -69 c-3 -8 -12 -14 -20
-14 -12 0 -13 5 -4 31 9 27 12 29 20 15 5 -10 7 -24 4 -32z"/>
<path d="M1893 225 c0 -38 2 -55 4 -37 4 26 9 32 29 32 20 0 24 -5 25 -32 1
-32 2 -32 11 9 6 23 7 54 3 70 l-8 28 -6 -30 c-4 -21 -12 -30 -26 -30 -14 0
-22 9 -26 30 -4 19 -6 4 -6 -40z"/>
<path d="M2053 225 c0 -38 2 -53 4 -32 2 20 2 52 0 70 -2 17 -4 1 -4 -38z"/>
<path d="M6660 269 c0 -9 9 -28 21 -43 26 -33 69 -35 95 -3 l19 22 -22 -18
c-34 -29 -75 -19 -95 23 -10 19 -18 28 -18 19z"/>
</g>
</svg>
